<svg xmlns="http://www.w3.org/2000/svg" xmlns:xlink="http://www.w3.org/1999/xlink" version="1.1" id="Your_Icon" x="0px" y="0px" width="100px" height="100px" viewBox="0 0 100 100" enable-background="new 0 0 100 100" xml:space="preserve">
<g>
	<rect x="2" y="21.359" width="95.71" height="2.453"/>
	<rect x="2" y="76.549" width="95.71" height="2.451"/>
	<path d="M2,72.256V28.104h95.71v44.151H2z M36.243,51.406v-2.453H2.002v2.453H36.243z M97.724,51.414v-2.453H64.125v2.453H97.724z    M41.581,67.33h16.558v-3.764H41.581V67.33z M41.581,59.725h16.558v-3.764H41.581V59.725z M41.581,52.154h16.558v-3.764H41.581   V52.154z M41.581,44.592h16.558v-3.764H41.581V44.592z M41.581,36.984h16.558v-3.764H41.581V36.984z"/>
</g>
</svg>