<svg xmlns:dc="http://purl.org/dc/elements/1.1/" xmlns:cc="http://creativecommons.org/ns#" xmlns:rdf="http://www.w3.org/1999/02/22-rdf-syntax-ns#" xmlns:svg="http://www.w3.org/2000/svg" xmlns="http://www.w3.org/2000/svg" xmlns:sodipodi="http://sodipodi.sourceforge.net/DTD/sodipodi-0.dtd" xmlns:inkscape="http://www.inkscape.org/namespaces/inkscape" width="100" height="100" viewBox="0 0 80 80" version="1.1" id="svg2" inkscape:version="0.48.2 r9819" sodipodi:docname="park bench.svg">
  <metadata id="metadata10">
    <rdf:RDF>
      <cc:Work rdf:about="">
        <dc:format>image/svg+xml</dc:format>
        <dc:type rdf:resource="http://purl.org/dc/dcmitype/StillImage"/>
        <dc:title/>
      </cc:Work>
    </rdf:RDF>
  </metadata>
  <defs id="defs8">
    <inkscape:path-effect is_visible="true" id="path-effect5043" effect="spiro"/>
    <inkscape:path-effect is_visible="true" id="path-effect5065" effect="spiro"/>
  </defs>
  <sodipodi:namedview pagecolor="#ffffff" bordercolor="#666666" borderopacity="1" objecttolerance="10" gridtolerance="10" guidetolerance="10" inkscape:pageopacity="0" inkscape:pageshadow="2" inkscape:window-width="1366" inkscape:window-height="706" id="namedview6" showgrid="true" inkscape:zoom="5.6568543" inkscape:cx="60.887152" inkscape:cy="37.357374" inkscape:window-x="-8" inkscape:window-y="-8" inkscape:window-maximized="1" inkscape:current-layer="svg2" inkscape:snap-grids="true" showguides="true" inkscape:guide-bbox="true">
    <inkscape:grid type="xygrid" id="grid3807"/>
  </sodipodi:namedview>
  <path style="color:#000000;fill:#000000;fill-opacity:0.99547544;fill-rule:nonzero;stroke:none;stroke-width:0.40000001;marker:none;visibility:visible;display:inline;overflow:visible;enable-background:accumulate" d="m 8.602809,22.750562 0,0.880899 -7.047191,0 0,2.642697 7.047191,0 0,0.880899 -7.047191,0 0,2.642696 7.047191,0 0,0.880899 -7.047191,0 0,2.642697 7.047191,0 0,0.880899 -7.047191,0 0,2.642696 7.047191,0 0,3.523596 -7.047191,0 0,3.523595 5.2578652,0 0,16.461798 4.4044948,0 c 0.692317,-0.708819 1.634164,-1.736037 2.367415,-2.505056 l 0.02753,-0.02753 c -0.45042,-1.126052 -0.725627,-2.611253 -0.908427,-4.239326 l 56.955618,0 c -0.182799,1.628073 -0.458005,3.113274 -0.908427,4.239326 -0.007,0.01784 0,0.02426 0,0.02753 0.752591,0.761311 1.768013,1.831008 2.394944,2.505056 l 4.404495,0 0,-16.461798 4.404494,0 0,-3.523595 -7.047191,0 0,-3.523596 7.047191,0 0,-2.642696 -7.047191,0 0,-0.880899 7.047191,0 0,-2.642697 -7.047191,0 0,-0.880899 7.047191,0 0,-2.642696 -7.047191,0 0,-0.880899 7.047191,0 0,-2.642697 -7.047191,0 0,-0.880899 -3.000562,0 0,0.880899 -59.075281,0 0,-0.880899 -2.229775,0 z m 1.128652,1.596629 c 0.334473,0 0.605618,0.271145 0.605618,0.605618 0,0.334474 -0.271145,0.605618 -0.605618,0.605618 -0.334474,0 -0.605618,-0.271144 -0.605618,-0.605618 0,-0.334473 0.271144,-0.605618 0.605618,-0.605618 z m 61.662921,0 c 0.334474,0 0.605618,0.271145 0.605618,0.605618 0,0.334474 -0.271144,0.605618 -0.605618,0.605618 -0.334474,0 -0.605618,-0.271144 -0.605618,-0.605618 0,-0.334473 0.271144,-0.605618 0.605618,-0.605618 z m -60.561798,1.926967 59.075281,0 0,0.880899 -59.075281,0 0,-0.880899 z m -1.101123,1.596629 c 0.334473,0 0.605618,0.271144 0.605618,0.605618 0,0.334474 -0.271145,0.605618 -0.605618,0.605618 -0.334474,0 -0.605618,-0.271144 -0.605618,-0.605618 0,-0.334474 0.271144,-0.605618 0.605618,-0.605618 z m 61.662921,0 c 0.334474,0 0.605618,0.271144 0.605618,0.605618 0,0.334474 -0.271144,0.605618 -0.605618,0.605618 -0.334474,0 -0.605618,-0.271144 -0.605618,-0.605618 0,-0.334474 0.271144,-0.605618 0.605618,-0.605618 z m -60.561798,1.926966 59.075281,0 0,0.880899 -59.075281,0 0,-0.880899 z m -1.101123,1.596629 c 0.334473,0 0.605618,0.271145 0.605618,0.605618 0,0.334474 -0.271145,0.605618 -0.605618,0.605618 -0.334474,0 -0.605618,-0.271144 -0.605618,-0.605618 0,-0.334473 0.271144,-0.605618 0.605618,-0.605618 z m 61.662921,0 C 71.728856,31.394382 72,31.665527 72,32 c 0,0.334474 -0.271144,0.605618 -0.605618,0.605618 -0.334474,0 -0.605618,-0.271144 -0.605618,-0.605618 0,-0.334473 0.271144,-0.605618 0.605618,-0.605618 z m -60.561798,1.926967 59.075281,0 0,0.880899 -59.075281,0 0,-0.880899 z m -1.101123,1.486517 c 0.334473,0 0.605618,0.271144 0.605618,0.605618 0,0.334473 -0.271145,0.605618 -0.605618,0.605618 -0.334474,0 -0.605618,-0.271145 -0.605618,-0.605618 0,-0.334474 0.271144,-0.605618 0.605618,-0.605618 z m 61.662921,0 c 0.334474,0 0.605618,0.271144 0.605618,0.605618 0,0.334473 -0.271144,0.605618 -0.605618,0.605618 -0.334474,0 -0.605618,-0.271145 -0.605618,-0.605618 0,-0.334474 0.271144,-0.605618 0.605618,-0.605618 z m -60.561798,2.037078 59.075281,0 0,3.523596 -0.08258,0 -57.285955,0 -0.908427,0 -0.798315,0 0,-3.523596 z m 0.385394,7.047191 0.357865,0 c -0.03198,1.659907 -0.05847,3.456697 -0.02753,5.312922 0.0097,0.580143 0.03121,1.160417 0.05506,1.734269 l -0.385393,0 0,-7.047191 z m 1.238764,0 57.451123,0 c 0.03968,1.661287 0.05826,3.441151 0.02753,5.285394 -0.0098,0.590298 -0.02806,1.179194 -0.05506,1.761797 l -57.396067,0 c -0.02699,-0.582603 -0.04522,-1.171499 -0.05506,-1.761797 -0.03074,-1.844243 -0.01215,-3.624107 0.02753,-5.285394 z m 58.332022,0 0.357865,0 0,7.047191 -0.385393,0 c 0.02385,-0.573852 0.04539,-1.154126 0.05506,-1.734269 0.03094,-1.856179 0.01203,-3.653047 -0.02753,-5.312922 z M 8.16236,51.875281 c 0.243254,0 0.440449,0.197196 0.440449,0.44045 0,0.243253 -0.197195,0.440449 -0.440449,0.440449 -0.243254,0 -0.44045,-0.197196 -0.44045,-0.440449 0,-0.243254 0.197196,-0.44045 0.44045,-0.44045 z m 1.761797,0 c 0.243254,0 0.44045,0.197196 0.44045,0.44045 0,0.243253 -0.197196,0.440449 -0.44045,0.440449 -0.243254,0 -0.440449,-0.197196 -0.440449,-0.440449 0,-0.243254 0.197195,-0.44045 0.440449,-0.44045 z m 62.543821,0 c 0.243254,0 0.440449,0.197196 0.440449,0.44045 0,0.243253 -0.197196,0.440449 -0.440449,0.440449 -0.243255,0 -0.44045,-0.197196 -0.44045,-0.440449 0,-0.243254 0.197196,-0.44045 0.44045,-0.44045 z m 1.761797,0 c 0.243254,0 0.44045,0.197196 0.44045,0.44045 0,0.243253 -0.197197,0.440449 -0.44045,0.440449 -0.243254,0 -0.440449,-0.197196 -0.440449,-0.440449 0,-0.243254 0.197196,-0.44045 0.440449,-0.44045 z m -63.011797,1.706742 0.578089,0 c 0.156698,1.501957 0.394727,2.893194 0.798315,4.074157 -0.526773,-0.163491 -0.903464,0.176451 -1.376404,0.412922 l 0,-4.487079 z m 59.350561,0 0.57809,0 0,4.487079 c -0.45558,-0.428101 -0.890151,-0.352104 -1.376404,-0.412922 0.403588,-1.180963 0.641617,-2.5722 0.798314,-4.074157 z" id="rect3011" inkscape:connector-curvature="0"/>
</svg>