<svg xmlns="http://www.w3.org/2000/svg" xmlns:xlink="http://www.w3.org/1999/xlink" version="1.1" id="Layer_1" x="0px" y="0px" width="100px" height="100px" viewBox="0 0 100 100" enable-background="new 0 0 100 100" xml:space="preserve">
<path fill="#000000" d="M49.108,98.375H14.733v-4.66h29.714V81.479h2.331V71.52c-13.124-0.91-23.3-11.848-23.305-24.999h-2.914  v-2.913h23.888V5.81c0-0.833-0.444-1.604-1.166-2.02c-0.721-0.417-1.609-0.417-2.33,0c-0.722,0.416-1.165,1.187-1.165,2.02v14.955  H38.62V5.81c0-1.249,0.666-2.402,1.748-3.03c1.082-0.627,2.413-0.627,3.495,0c1.083,0.627,1.748,1.781,1.748,3.03v37.799h3.496  h3.495V5.81c0-1.249,0.668-2.402,1.75-3.03c1.082-0.627,2.414-0.627,3.494,0c1.084,0.627,1.75,1.781,1.75,3.03v14.955H58.43V5.81  c0-0.833-0.443-1.604-1.164-2.02c-0.723-0.417-1.609-0.417-2.332,0c-0.721,0.416-1.164,1.187-1.164,2.02v37.799h23.888v2.913h-2.913  C74.755,59.673,64.561,70.6,51.438,71.52v9.961h2.332v12.235h29.713v4.66L49.108,98.375L49.108,98.375z"/>
</svg>